<svg width="200" height="60" viewBox="0 0 200 60" fill="none" xmlns="http://www.w3.org/2000/svg">
  <defs>
    <linearGradient id="bgGradient" x1="0%" y1="0%" x2="100%" y2="100%">
      <stop offset="0%" stop-color="#0D0F12" />
      <stop offset="100%" stop-color="#0F1115" />
    </linearGradient>
    
    <filter id="glow" x="-20%" y="-20%" width="140%" height="140%">
      <feGaussianBlur stdDeviation="3" result="blur" />
      <feComposite in="SourceGraphic" in2="blur" operator="over" />
    </filter>
    
    <linearGradient id="iconGradient" x1="0%" y1="0%" x2="100%" y2="100%">
      <stop offset="0%" stop-color="#10B981" />
      <stop offset="100%" stop-color="#059669" />
    </linearGradient>
  </defs>

  <rect width="200" height="60" rx="12" fill="url(#bgGradient)" />

  <rect x="12" y="10" width="40" height="40" rx="10" fill="url(#iconGradient)" filter="url(#glow)" />
  
  <path d="M24 24C24 22.8954 27.5817 22 32 22C36.4183 22 40 22.8954 40 24M24 24C24 25.1046 27.5817 26 32 26C36.4183 26 40 25.1046 40 24M24 24V32C24 33.1046 27.5817 34 32 34C36.4183 34 40 33.1046 40 32V24M24 28C24 29.1046 27.5817 30 32 30C36.4183 30 40 29.1046 40 28" stroke="black" stroke-width="2.5" stroke-linecap="round"/>

  <text x="68" y="38" fill="white" style="font-family: 'Inter', sans-serif; font-weight: 800; font-size: 26px; letter-spacing: -0.05em;">
    CSV<tspan fill="#10B981">.</tspan>AI
  </text>
</svg>
